<svg width="23" height="19" viewBox="0 0 23 19" fill="none" xmlns="http://www.w3.org/2000/svg">
<g clip-path="url(#clip0_126_434)">
<path d="M4.26917 14.1136C4.39844 13.9786 4.57618 13.8999 4.7647 13.8999H21.8606C22.173 13.8999 22.3292 14.2935 22.1084 14.524L18.7312 18.0495C18.6019 18.1845 18.4242 18.2632 18.2357 18.2632H1.13977C0.827364 18.2632 0.671163 17.8696 0.891998 17.6391L4.26917 14.1136Z" fill="url(#paint0_linear_126_434)"/>
<path d="M4.26917 0.950483C4.40382 0.815536 4.58157 0.736816 4.7647 0.736816H21.8606C22.173 0.736816 22.3292 1.13041 22.1084 1.36095L18.7312 4.88645C18.6019 5.0214 18.4242 5.10012 18.2357 5.10012H1.13977C0.827364 5.10012 0.671163 4.70652 0.891998 4.47599L4.26917 0.950483Z" fill="url(#paint1_linear_126_434)"/>
<path d="M18.7312 7.48979C18.6019 7.35484 18.4242 7.27612 18.2357 7.27612H1.13977C0.827364 7.27612 0.671163 7.66972 0.891998 7.90026L4.26917 11.4258C4.39844 11.5607 4.57618 11.6394 4.7647 11.6394H21.8606C22.173 11.6394 22.3292 11.2458 22.1084 11.0153L18.7312 7.48979Z" fill="url(#paint2_linear_126_434)"/>
</g>
<defs>
<linearGradient id="paint0_linear_126_434" x1="20.2275" y1="-1.36915" x2="7.57678" y2="21.8424" gradientUnits="userSpaceOnUse">
<stop stop-color="#00FFA3"/>
<stop offset="1" stop-color="#DC1FFF"/>
</linearGradient>
<linearGradient id="paint1_linear_126_434" x1="15.054" y1="-4.18885" x2="2.40331" y2="19.0228" gradientUnits="userSpaceOnUse">
<stop stop-color="#00FFA3"/>
<stop offset="1" stop-color="#DC1FFF"/>
</linearGradient>
<linearGradient id="paint2_linear_126_434" x1="17.6242" y1="-2.78804" x2="4.97357" y2="20.4236" gradientUnits="userSpaceOnUse">
<stop stop-color="#00FFA3"/>
<stop offset="1" stop-color="#DC1FFF"/>
</linearGradient>
<clipPath id="clip0_126_434">
<rect width="21.4211" height="17.5263" fill="white" transform="translate(0.789551 0.736816)"/>
</clipPath>
</defs>
</svg>
