<svg width="17" height="16" viewBox="0 0 17 16" fill="none" xmlns="http://www.w3.org/2000/svg">
<path d="M2.76196 11.396C2.86454 11.277 3.00559 11.2075 3.15518 11.2075H16.7213C16.9692 11.2075 17.0932 11.5547 16.9179 11.7581L14.238 14.8681C14.1355 14.9871 13.9944 15.0566 13.8448 15.0566H0.278681C0.0307806 15.0566 -0.0931696 14.7094 0.0820704 14.506L2.76196 11.396Z" fill="white"/>
<path d="M2.76196 1.10043C2.86881 1.00123 3.00986 0.943359 3.15518 0.943359H16.7213C16.9692 0.943359 17.0932 1.2327 16.9179 1.40217L14.238 3.99384C14.1355 4.09304 13.9944 4.15091 13.8448 4.15091H0.278681C0.0307806 4.15091 -0.0931696 3.86157 0.0820704 3.6921L2.76196 1.10043Z" fill="white"/>
<path d="M14.238 6.55331C14.1355 6.45411 13.9944 6.39624 13.8448 6.39624H0.278681C0.0307806 6.39624 -0.0931696 6.68558 0.0820704 6.85505L2.76196 9.44672C2.86454 9.54592 3.00559 9.60379 3.15518 9.60379H16.7213C16.9692 9.60379 17.0932 9.31445 16.9179 9.14498L14.238 6.55331Z" fill="white"/>
</svg>
