<svg width="486" height="570" viewBox="0 0 486 570" fill="none" xmlns="http://www.w3.org/2000/svg">
<g opacity="0.5">
<g opacity="0.5">
<path d="M485.5 285C485.5 442.203 376.857 569.5 243 569.5C109.143 569.5 0.5 442.203 0.5 285C0.5 127.798 109.143 0.500244 243 0.500244C376.857 0.500244 485.5 127.798 485.5 285Z" stroke="white"/>
<path d="M453.5 285C453.5 431.709 352.021 550.5 227 550.5C101.979 550.5 0.5 431.709 0.5 285C0.5 138.291 101.979 19.5002 227 19.5002C352.021 19.5002 453.5 138.291 453.5 285Z" stroke="white" stroke-opacity="0.5"/>
<path d="M423.5 285C423.5 421.767 328.738 532.5 212 532.5C95.2625 532.5 0.5 421.767 0.5 285C0.5 148.233 95.2625 37.5002 212 37.5002C328.738 37.5002 423.5 148.233 423.5 285Z" stroke="white" stroke-opacity="0.3"/>
<path d="M389.5 285C389.5 410.721 302.349 512.5 195 512.5C87.6511 512.5 0.5 410.721 0.5 285C0.5 159.279 87.6511 57.5002 195 57.5002C302.349 57.5002 389.5 159.279 389.5 285Z" stroke="white" stroke-opacity="0.15"/>
<path d="M355.5 285C355.5 399.675 275.96 492.5 178 492.5C80.0397 492.5 0.5 399.675 0.5 285C0.5 170.325 80.0397 77.5002 178 77.5002C275.96 77.5002 355.5 170.325 355.5 285Z" stroke="white" stroke-opacity="0.1"/>
<path d="M330.5 285C330.5 391.39 256.558 477.5 165.5 477.5C74.4424 477.5 0.5 391.39 0.5 285C0.5 178.611 74.4424 92.5002 165.5 92.5002C256.558 92.5002 330.5 178.611 330.5 285Z" stroke="white" stroke-opacity="0.05"/>
</g>
</g>
</svg>
